<svg width="191" height="57" viewBox="0 0 191 57" fill="none" xmlns="http://www.w3.org/2000/svg">
<path d="M24.34 57C37.5254 52.4439 46.9232 41.854 48.398 28.37C48.807 22.5167 48.7721 16.6406 48.2939 10.7926C48.2308 9.87077 47.8271 9.00567 47.1618 8.36621C46.4965 7.72671 45.6173 7.35873 44.6959 7.33412C38.7309 7.14997 31.7985 6.15363 26.441 0.863434C25.8812 0.310172 25.1267 0 24.3406 0C23.5545 0 22.8 0.310172 22.2403 0.863434C16.8821 6.15303 9.94986 7.14997 3.98553 7.33412C3.06411 7.35873 2.18491 7.72671 1.5196 8.36621C0.854296 9.00567 0.450648 9.87077 0.387466 10.7926C-0.0911773 16.6406 -0.126419 22.5166 0.28205 28.37C1.75687 41.854 11.1545 52.4439 24.34 57Z" fill="#794FDC"/>
<path d="M63.6566 28.7493C61.8557 28.7493 60.2861 28.3835 58.9478 27.652C57.6096 26.9039 56.5769 25.8898 55.85 24.6097C55.123 23.3129 54.7595 21.8333 54.7595 20.1708C54.7595 18.5083 55.123 17.037 55.85 15.7568C56.5935 14.4601 57.6343 13.446 58.9726 12.7145C60.3109 11.9663 61.8722 11.5923 63.6566 11.5923C64.747 11.5923 65.7714 11.7336 66.7297 12.0162C67.6879 12.2988 68.6462 12.756 69.6045 13.3878L68.1423 16.6047C67.3162 16.1392 66.5479 15.8067 65.8375 15.6072C65.127 15.4077 64.4001 15.308 63.6566 15.308C62.7479 15.308 61.9466 15.5158 61.2526 15.9314C60.5587 16.3304 60.0218 16.8957 59.6417 17.6272C59.2617 18.342 59.0717 19.1899 59.0717 20.1708C59.0717 21.135 59.2617 21.9829 59.6417 22.7144C60.0218 23.4459 60.5587 24.0195 61.2526 24.4351C61.9466 24.8341 62.7479 25.0336 63.6566 25.0336C64.4001 25.0336 65.127 24.9339 65.8375 24.7344C66.5479 24.5349 67.3162 24.2024 68.1423 23.7369L69.6045 26.9538C68.6462 27.5855 67.6879 28.0427 66.7297 28.3254C65.7714 28.608 64.747 28.7493 63.6566 28.7493ZM70.3801 28.4999L76.6502 11.8417H81.3589L87.629 28.4999H83.0194L82.1272 25.8565H75.8819L74.9897 28.4999H70.3801ZM76.9476 22.3653H81.0368L79.0046 16.3055L76.9476 22.3653ZM88.8749 28.4999V15.5573H84.191V11.8417H97.7968V15.5573H93.1376V28.4999H88.8749Z" fill="#794FDC"/>
<path d="M58.346 53.3899C56.5451 53.3899 54.9756 53.0242 53.6373 52.2927C52.299 51.5445 51.2664 50.5304 50.5394 49.2503C49.8125 47.9535 49.449 46.4739 49.449 44.8114C49.449 43.1489 49.8125 41.6776 50.5394 40.3975C51.2829 39.1007 52.3238 38.0866 53.6621 37.3551C55.0003 36.607 56.5617 36.2329 58.346 36.2329C59.4365 36.2329 60.5021 36.3742 61.543 36.6568C62.6004 36.9395 63.6083 37.3967 64.5665 38.0284L63.1291 41.2453C62.2865 40.7798 61.4604 40.4473 60.6508 40.2478C59.8578 40.0483 59.0895 39.9486 58.346 39.9486C57.4373 39.9486 56.636 40.1564 55.9421 40.572C55.2482 40.971 54.7112 41.5363 54.3312 42.2678C53.9512 42.9827 53.7612 43.8305 53.7612 44.8114C53.7612 45.7757 53.9512 46.6235 54.3312 47.355C54.7112 48.0865 55.2482 48.6601 55.9421 49.0757C56.636 49.4747 57.4373 49.6742 58.346 49.6742C59.0069 49.6742 59.5934 49.5745 60.1056 49.375C60.6343 49.1755 61.0969 48.8762 61.4935 48.4772V46.6817H58.0982V43.39H65.7561V49.8737C64.9961 50.971 63.9883 51.8355 62.7326 52.4672C61.4769 53.0823 60.0147 53.3899 58.346 53.3899ZM75.7056 53.3899C73.3264 53.3899 71.4925 52.8164 70.2038 51.6692C68.9316 50.5055 68.2955 48.6933 68.2955 46.2328V36.4823H72.5581V46.2328C72.5581 46.981 72.6738 47.6127 72.9051 48.1281C73.1364 48.6435 73.4834 49.0342 73.946 49.3002C74.4086 49.5495 74.9951 49.6742 75.7056 49.6742C76.416 49.6742 77.0025 49.5495 77.4651 49.3002C77.9278 49.0342 78.2747 48.6435 78.506 48.1281C78.7373 47.6127 78.853 46.981 78.853 46.2328V36.4823H83.1156V46.2328C83.1156 48.6933 82.4713 50.5055 81.1826 51.6692C79.9104 52.8164 78.0847 53.3899 75.7056 53.3899ZM83.2694 53.1405L89.5394 36.4823H94.2482L100.518 53.1405H95.9086L95.0165 50.4972H88.7712L87.879 53.1405H83.2694ZM89.8368 47.0059H93.926L91.8938 40.9461L89.8368 47.0059ZM102.203 53.1405V36.4823H109.563C111.661 36.4823 113.264 36.9312 114.371 37.8289C115.478 38.71 116.031 40.0234 116.031 41.769C116.031 43.1323 115.701 44.2212 115.04 45.0358C114.396 45.8338 113.471 46.3991 112.264 46.7316L116.874 53.1405H111.918L107.853 47.0807H106.465V53.1405H102.203ZM106.465 43.7391H108.894C109.902 43.7391 110.621 43.5812 111.05 43.2653C111.496 42.9494 111.719 42.459 111.719 41.794C111.719 41.129 111.504 40.6385 111.075 40.3227C110.662 40.0068 109.935 39.8488 108.894 39.8488H106.465V43.7391ZM118.321 53.1405V36.4823H124.492C127.466 36.4823 129.73 37.1805 131.283 38.577C132.852 39.9735 133.637 42.0517 133.637 44.8114C133.637 47.5712 132.852 49.6493 131.283 51.0458C129.73 52.4423 127.466 53.1405 124.492 53.1405H118.321ZM122.584 49.5495H124.467C126.252 49.5495 127.507 49.1588 128.234 48.3775C128.961 47.5961 129.325 46.4074 129.325 44.8114C129.325 43.232 128.961 42.0517 128.234 41.2703C127.507 40.4723 126.252 40.0733 124.467 40.0733H122.584V49.5495ZM135.916 53.1405V36.4823H140.179V53.1405H135.916ZM141.838 53.1405L148.108 36.4823H152.817L159.087 53.1405H154.478L153.586 50.4972H147.34L146.448 53.1405H141.838ZM148.406 47.0059H152.495L150.463 40.9461L148.406 47.0059ZM160.772 53.1405V36.4823H165.282L171.329 46.6568V36.4823H175.592V53.1405H171.081L165.034 42.966V53.1405H160.772ZM184.135 53.3899C182.929 53.3899 181.83 53.2237 180.839 52.8912C179.848 52.5587 178.856 52.0183 177.865 51.2702L179.302 48.0533C180.244 48.6352 181.128 49.084 181.954 49.3999C182.78 49.7158 183.507 49.8737 184.135 49.8737C184.961 49.8737 185.589 49.7241 186.019 49.4248C186.465 49.1256 186.688 48.7183 186.688 48.2029C186.688 47.8205 186.539 47.488 186.242 47.2054C185.961 46.9228 185.548 46.7399 185.003 46.6568L182.97 46.2578C181.335 45.9585 180.153 45.4515 179.426 44.7366C178.716 44.0051 178.361 43.0658 178.361 41.9187C178.361 40.8713 178.576 39.9153 179.005 39.0508C179.451 38.1863 180.137 37.5047 181.062 37.006C182.004 36.4906 183.218 36.2329 184.705 36.2329C185.647 36.2329 186.597 36.3576 187.555 36.607C188.513 36.8397 189.497 37.3052 190.504 38.0035L189.067 41.2204C188.241 40.7715 187.464 40.4141 186.737 40.1481C186.01 39.8821 185.374 39.7491 184.829 39.7491C184.069 39.7491 183.516 39.8821 183.169 40.1481C182.838 40.3975 182.673 40.7549 182.673 41.2204C182.673 41.6028 182.813 41.902 183.094 42.1182C183.392 42.3343 183.813 42.4839 184.358 42.567L186.39 42.966C188.01 43.2653 189.183 43.8472 189.91 44.7117C190.637 45.5762 191 46.5737 191 47.7042C191 49.483 190.413 50.8795 189.24 51.8937C188.084 52.8912 186.382 53.3899 184.135 53.3899Z" fill="#794FDC"/>
<mask id="mask0_545_922" style="mask-type:luminance" maskUnits="userSpaceOnUse" x="5" y="9" width="35" height="36">
<path d="M39.5347 9.79688H5.01562V44.5312H39.5347V9.79688Z" fill="white"/>
</mask>
<g mask="url(#mask0_545_922)">
<mask id="mask1_545_922" style="mask-type:luminance" maskUnits="userSpaceOnUse" x="6" y="14" width="33" height="33">
<path d="M38.4913 14.2185H6.25464V46.6563H38.4913V14.2185Z" fill="white"/>
</mask>
<g mask="url(#mask1_545_922)">
<path d="M37.3024 13.6562L35.1044 17.3136C33.2144 16.6973 30.4006 16.8179 28.6307 17.3136L26.5132 13.7079C23.0357 20.2442 24.0199 24.375 26.6734 26.4287C26.2674 26.6841 25.8493 26.9649 25.4172 27.2731C14.3569 18.3942 4.39978 28.3943 10.9318 37.3288H10.9821C12.1537 39.0388 13.5037 40.0971 14.9614 40.6508C17.0265 41.4342 19.1511 41.2092 21.2435 40.9112C23.3359 40.6131 25.3829 40.239 27.3342 40.3789C29.2857 40.519 31.2371 41.0228 33.0229 42.983C34.2411 44.3193 35.9706 42.8806 34.5199 41.4556C32.3189 39.2923 29.9616 38.456 27.6445 38.2909C25.3275 38.1256 23.1062 38.5878 21.0944 38.8746C19.0826 39.1617 17.3056 39.2893 15.7794 38.7095C15.0631 38.4379 14.366 38.0101 13.694 37.3308H36.3707C37.4425 33.5234 37.5564 29.4951 36.3373 26.9538C39.9993 25.0308 41.4721 20.4905 37.3024 13.6583V13.6562ZM30.5024 23.491C28.1693 24.6233 27.1106 23.7059 26.6573 21.8124C28.947 20.3831 30.3101 21.5305 30.5024 23.491ZM33.415 23.491C33.6074 21.5305 34.9704 20.382 37.2602 21.8124C36.8067 23.7059 35.747 24.6243 33.415 23.491Z" fill="white"/>
</g>
</g>
</svg>
