<svg width="144" height="150" viewBox="0 0 144 150" fill="none" xmlns="http://www.w3.org/2000/svg">
<g clip-path="url(#clip0_130_1681)">
<path d="M24.75 126.018H38.25C39.4942 126.018 40.5 124.982 40.5 123.699V112.104C40.5 110.822 39.4942 109.785 38.25 109.785H24.75C23.5058 109.785 22.5 110.822 22.5 112.104V123.699C22.5 124.982 23.5058 126.018 24.75 126.018ZM27 114.423H36V121.38H27V114.423Z" fill="#CE8CDE"/>
<path d="M51.75 126.018H65.25C66.4942 126.018 67.5 124.982 67.5 123.699V112.104C67.5 110.822 66.4942 109.785 65.25 109.785H51.75C50.5058 109.785 49.5 110.822 49.5 112.104V123.699C49.5 124.982 50.5058 126.018 51.75 126.018ZM54 114.423H63V121.38H54V114.423Z" fill="#CE8CDE"/>
<path d="M78.75 126.018H92.25C93.4942 126.018 94.5 124.982 94.5 123.699V112.104C94.5 110.822 93.4942 109.785 92.25 109.785H78.75C77.5058 109.785 76.5 110.822 76.5 112.104V123.699C76.5 124.982 77.5058 126.018 78.75 126.018ZM81 114.423H90V121.38H81V114.423Z" fill="#CE8CDE"/>
<path d="M24.75 100.509H38.25C39.4942 100.509 40.5 99.4725 40.5 98.1901V86.595C40.5 85.3126 39.4942 84.276 38.25 84.276H24.75C23.5058 84.276 22.5 85.3126 22.5 86.595V98.1901C22.5 99.4725 23.5058 100.509 24.75 100.509ZM27 88.914H36V95.8711H27V88.914Z" fill="#CE8CDE"/>
<path d="M51.75 100.509H65.25C66.4942 100.509 67.5 99.4725 67.5 98.1901V86.595C67.5 85.3126 66.4942 84.276 65.25 84.276H51.75C50.5058 84.276 49.5 85.3126 49.5 86.595V98.1901C49.5 99.4725 50.5058 100.509 51.75 100.509ZM54 88.914H63V95.8711H54V88.914Z" fill="#CE8CDE"/>
<path d="M78.75 100.509H92.25C93.4942 100.509 94.5 99.4725 94.5 98.1901V86.595C94.5 85.3126 93.4942 84.276 92.25 84.276H78.75C77.5058 84.276 76.5 85.3126 76.5 86.595V98.1901C76.5 99.4725 77.5058 100.509 78.75 100.509ZM81 88.914H90V95.8711H81V88.914Z" fill="#CE8CDE"/>
<path d="M105.75 100.509H119.25C120.494 100.509 121.5 99.4725 121.5 98.1901V86.595C121.5 85.3126 120.494 84.276 119.25 84.276H105.75C104.506 84.276 103.5 85.3126 103.5 86.595V98.1901C103.5 99.4725 104.506 100.509 105.75 100.509ZM108 88.914H117V95.8711H108V88.914Z" fill="#CE8CDE"/>
<path d="M24.75 75H38.25C39.4942 75 40.5 73.9634 40.5 72.681V61.0859C40.5 59.8034 39.4942 58.7668 38.25 58.7668H24.75C23.5058 58.7668 22.5 59.8034 22.5 61.0859V72.681C22.5 73.9634 23.5058 75 24.75 75ZM27 63.4049H36V70.3619H27V63.4049Z" fill="#CE8CDE"/>
<path d="M51.75 75H65.25C66.4942 75 67.5 73.9634 67.5 72.681V61.0859C67.5 59.8034 66.4942 58.7668 65.25 58.7668H51.75C50.5058 58.7668 49.5 59.8034 49.5 61.0859V72.681C49.5 73.9634 50.5058 75 51.75 75ZM54 63.4049H63V70.3619H54V63.4049Z" fill="#CE8CDE"/>
<path d="M78.75 75H92.25C93.4942 75 94.5 73.9634 94.5 72.681V61.0859C94.5 59.8034 93.4942 58.7668 92.25 58.7668H78.75C77.5058 58.7668 76.5 59.8034 76.5 61.0859V72.681C76.5 73.9634 77.5058 75 78.75 75ZM81 63.4049H90V70.3619H81V63.4049Z" fill="#CE8CDE"/>
<path d="M105.75 75H119.25C120.494 75 121.5 73.9634 121.5 72.681V61.0859C121.5 59.8034 120.494 58.7668 119.25 58.7668H105.75C104.506 58.7668 103.5 59.8034 103.5 61.0859V72.681C103.5 73.9634 104.506 75 105.75 75ZM108 63.4049H117V70.3619H108V63.4049Z" fill="#CE8CDE"/>
<path d="M135 10.0675H119.25V7.74844C119.25 3.90582 116.228 0.791382 112.5 0.791382C108.772 0.791382 105.75 3.90582 105.75 7.74844V10.0675H38.25V7.74844C38.25 3.90582 35.2282 0.791382 31.5 0.791382C27.7717 0.791382 24.75 3.90582 24.75 7.74844V10.0675H9C4.02525 10.0675 0 14.2162 0 19.3435V139.932C0 145.06 4.02525 149.209 9 149.209H135C139.975 149.209 144 145.06 144 139.932V19.3435C144 14.2162 139.975 10.0675 135 10.0675ZM110.25 7.74844C110.25 6.46602 111.256 5.42942 112.5 5.42942C113.744 5.42942 114.75 6.46602 114.75 7.74844V14.7055V23.9816C114.75 25.264 113.744 26.3006 112.5 26.3006C111.256 26.3006 110.25 25.264 110.25 23.9816V14.7055V7.74844ZM29.25 7.74844C29.25 6.46602 30.2558 5.42942 31.5 5.42942C32.7443 5.42942 33.75 6.46602 33.75 7.74844V14.7055V23.9816C33.75 25.264 32.7443 26.3006 31.5 26.3006C30.2558 26.3006 29.25 25.264 29.25 23.9816V14.7055V7.74844ZM139.5 139.932C139.5 142.493 137.484 144.571 135 144.571H9C6.516 144.571 4.5 142.493 4.5 139.932V40.2147H139.5V139.932ZM139.5 35.5767H4.5V19.3435C4.5 16.7833 6.516 14.7055 9 14.7055H24.75V23.9816C24.75 27.8242 27.7717 30.9386 31.5 30.9386C35.2282 30.9386 38.25 27.8242 38.25 23.9816V14.7055H105.75V23.9816C105.75 27.8242 108.772 30.9386 112.5 30.9386C116.228 30.9386 119.25 27.8242 119.25 23.9816V14.7055H135C137.484 14.7055 139.5 16.7833 139.5 19.3435V35.5767Z" fill="#CE8CDE"/>
</g>
<defs>
<clipPath id="clip0_130_1681">
<rect width="144" height="148.417" fill="white" transform="translate(0 0.791382)"/>
</clipPath>
</defs>
</svg>
