<svg width="144" height="144" viewBox="0 0 144 144" fill="none" xmlns="http://www.w3.org/2000/svg">
<g clip-path="url(#clip0_7737_4166)">
<path d="M56.8477 32.8329C51.6147 32.8329 47.3575 37.0902 47.3575 42.3231C47.3575 43.5688 48.3674 44.5785 49.6128 44.5785C50.8585 44.5785 51.8681 43.5685 51.8681 42.3231C51.8681 39.5775 54.1018 37.3436 56.8477 37.3436C59.5932 37.3436 61.8272 39.5773 61.8272 42.3231C61.8272 43.5688 62.8372 44.5785 64.0825 44.5785C65.3279 44.5785 66.3379 43.5685 66.3379 42.3231C66.3379 37.0904 62.0806 32.8329 56.8477 32.8329Z" fill="#F1A874"/>
<path d="M87.1501 32.8329C81.9172 32.8329 77.6596 37.0902 77.6596 42.3231C77.6596 43.5688 78.669 44.5785 79.915 44.5785C81.1609 44.5785 82.1703 43.5685 82.1703 42.3231C82.1703 39.5775 84.404 37.3436 87.1501 37.3436C89.8957 37.3436 92.1296 39.5773 92.1296 42.3231C92.1296 43.5688 93.139 44.5785 94.385 44.5785C95.6309 44.5785 96.6403 43.5685 96.6403 42.3231C96.6406 37.0904 92.3833 32.8329 87.1501 32.8329Z" fill="#F1A874"/>
<path d="M71.9989 48.3362C66.7659 48.3362 62.5087 52.5935 62.5087 57.8264C62.5087 59.0721 63.5186 60.0817 64.764 60.0817C66.0094 60.0817 67.0194 59.0718 67.0194 57.8264C67.0194 55.0808 69.253 52.8469 71.9989 52.8469C74.7444 52.8469 76.9784 55.0806 76.9784 57.8264C76.9784 59.0721 77.9878 60.0817 79.2338 60.0817C80.4797 60.0817 81.4891 59.0718 81.4891 57.8264C81.4891 52.5935 77.2321 48.3362 71.9989 48.3362Z" fill="#F1A874"/>
<path d="M37.6791 48.3362C32.4461 48.3362 28.1888 52.5935 28.1888 57.8264C28.1888 59.0721 29.1988 60.0817 30.4442 60.0817C31.6896 60.0817 32.6995 59.0718 32.6995 57.8264C32.6995 55.0808 34.9332 52.8469 37.6791 52.8469C40.4246 52.8469 42.6586 55.0806 42.6586 57.8264C42.6586 59.0721 43.6686 60.0817 44.9139 60.0817C46.1596 60.0817 47.1693 59.0718 47.1693 57.8264C47.1693 52.5932 42.912 48.3362 37.6791 48.3362Z" fill="#F1A874"/>
<path d="M106.318 48.3362C101.085 48.3362 96.8279 52.5935 96.8279 57.8264C96.8279 59.0721 97.8373 60.0817 99.0833 60.0817C100.329 60.0817 101.339 59.0718 101.339 57.8264C101.339 55.0808 103.572 52.8469 106.318 52.8469C109.064 52.8469 111.298 55.0806 111.298 57.8264C111.298 59.0721 112.307 60.0817 113.553 60.0817C114.799 60.0817 115.809 59.0718 115.809 57.8264C115.809 52.5935 111.552 48.3362 106.318 48.3362Z" fill="#F1A874"/>
<path d="M83.5422 110.334C82.4448 105.388 77.7173 98.2322 72.0394 98.2322H71.9587V98.2325C66.2813 98.2325 61.5535 105.388 60.4561 110.334C59.409 115.051 61.7043 116.686 62.7401 117.169C64.6613 118.065 66.8981 118.225 69.2339 117.633C70.1207 117.409 71.0373 117.295 71.9581 117.295H72.0397C72.9605 117.295 73.8771 117.409 74.7636 117.633C75.6875 117.867 76.6015 117.986 77.481 117.986H77.4813C78.8257 117.986 80.0961 117.711 81.2576 117.169C82.2932 116.686 84.589 115.052 83.5422 110.334ZM79.2354 113.133C78.7002 113.363 78.1248 113.475 77.481 113.475C76.9745 113.475 76.4331 113.403 75.8708 113.261C74.6224 112.945 73.3331 112.785 72.0394 112.785H71.9578C70.6638 112.785 69.3748 112.945 68.1263 113.261C66.8602 113.582 65.716 113.542 64.7615 113.133C64.5623 112.556 64.7516 110.364 66.4293 107.493C68.0889 104.652 70.3108 102.743 71.9581 102.743H72.0382C73.6858 102.743 75.908 104.652 77.5676 107.493C79.2456 110.365 79.4346 112.556 79.2354 113.133Z" fill="#F1A874"/>
<path d="M70.9549 86.247C69.7362 83.5391 67.0298 81.79 64.0598 81.79C62.9868 81.79 61.9439 82.0148 60.9598 82.4577C57.1593 84.1686 55.4591 88.6523 57.1703 92.4531C58.5537 95.526 62.1557 97.9332 65.3704 97.9335H65.3707C66.26 97.9335 67.1001 97.7583 67.8679 97.4126C71.7294 95.6739 72.6823 90.0838 70.9549 86.247ZM66.0167 93.2985C65.835 93.3804 65.6176 93.4217 65.3712 93.4217H65.3709C63.9231 93.4217 61.9366 92.0506 61.2838 90.6005C60.9497 89.858 60.9244 89.03 61.2132 88.2689C61.5015 87.5079 62.0693 86.9046 62.8116 86.5704C63.2095 86.3913 63.6292 86.3007 64.0595 86.3007C65.2579 86.3007 66.3497 87.0064 66.8416 88.0985C67.6699 89.937 67.2224 92.7557 66.0167 93.2985Z" fill="#F1A874"/>
<path d="M58.1704 95.051C57.0524 94.3087 55.7539 93.9164 54.4154 93.9164C52.13 93.9164 50.0116 95.0524 48.7485 96.9544C46.676 100.077 47.5293 104.303 50.6517 106.376C52.1032 107.34 54.1612 107.915 56.1555 107.915C58.6066 107.915 60.5357 107.044 61.5862 105.461C63.8421 102.064 61.0242 96.9457 58.1704 95.051ZM57.8289 102.966C57.7164 103.136 57.1632 103.404 56.1563 103.404H56.1561C55.082 103.404 53.8442 103.081 53.147 102.618C52.0968 101.921 51.8096 100.499 52.5068 99.4491C52.9318 98.8093 53.6453 98.4271 54.4154 98.4271C54.8634 98.4271 55.2988 98.559 55.6754 98.809C57.175 99.8046 58.2337 102.357 57.8289 102.966Z" fill="#F1A874"/>
<path d="M83.0374 82.4571C82.0533 82.0141 81.0104 81.7894 79.9374 81.7894C76.9674 81.7894 74.261 83.5388 73.0417 86.2464C72.254 87.9966 72.0177 90.2399 72.4106 92.2474C72.8932 94.7157 74.2137 96.55 76.1285 97.4117C76.8965 97.7574 77.7366 97.9326 78.626 97.9326C81.8406 97.9326 85.4429 95.5257 86.8264 92.4522C88.5378 88.6519 86.8382 84.168 83.0374 82.4571ZM82.7136 90.6007C82.0609 92.0508 80.0747 93.4219 78.6265 93.4219C78.3799 93.4219 78.1625 93.3803 77.981 93.2987C77.2211 92.9565 76.9286 91.8441 76.838 91.3817C76.6212 90.2733 76.743 89.0153 77.1556 88.0987C77.6472 87.0066 78.7396 86.301 79.938 86.301C80.3683 86.301 80.7882 86.3918 81.1856 86.5707C81.9281 86.9048 82.496 87.5081 82.7842 88.2691C83.0728 89.0302 83.0478 89.8582 82.7136 90.6007Z" fill="#F1A874"/>
<path d="M95.2484 96.9541C93.9853 95.052 91.8669 93.9166 89.5818 93.9166C88.2436 93.9163 86.9451 94.309 85.8265 95.0512C84.409 95.9925 83.0953 97.619 82.3126 99.4027C81.3052 101.698 81.34 103.85 82.4105 105.462C83.461 107.044 85.3895 107.915 87.8414 107.915C89.836 107.915 91.8937 107.34 93.3455 106.376C96.4679 104.303 97.3218 100.076 95.2484 96.9541ZM90.8502 102.618C90.1527 103.081 88.9152 103.404 87.8411 103.404C86.834 103.404 86.281 103.136 86.1683 102.967C86.0535 102.793 86.0262 102.165 86.443 101.215C86.9386 100.086 87.7438 99.1929 88.3215 98.8092C88.6978 98.5595 89.1335 98.4273 89.5815 98.4273C90.3518 98.427 91.0657 98.8092 91.4906 99.4491C92.1876 100.499 91.9004 101.921 90.8502 102.618Z" fill="#F1A874"/>
<path d="M143.526 92.6972C141.465 80.9353 133.841 65.3577 130.009 58.0404C130.112 57.8857 130.216 57.7319 130.314 57.5758C132.844 53.5148 132.738 49.925 132.203 47.6288C131.118 42.9702 127.199 39.4571 123.086 39.4571C122.154 39.4571 121.231 39.5454 120.326 39.7207C118.227 34.1713 112.855 30.3497 106.757 30.3497C105.901 30.3497 105.053 30.4239 104.22 30.571C102.34 24.66 96.7832 20.457 90.3951 20.457C88.0585 20.457 85.8085 21.0029 83.774 22.0514C81.0771 18.2849 76.7537 16.0276 71.9992 16.0276C67.2441 16.0276 62.921 18.2846 60.2243 22.0514C58.1901 21.0032 55.9398 20.457 53.6031 20.457C47.2151 20.457 41.6576 24.66 39.7786 30.571C38.9452 30.4239 38.0978 30.3497 37.2411 30.3497C31.1434 30.3497 25.7715 34.1713 23.6722 39.7207C22.7672 39.5457 21.8447 39.4571 20.9123 39.4571C16.7993 39.4571 12.8798 42.9702 11.7956 47.6286C11.261 49.925 11.1547 53.5148 13.6851 57.5761C13.7821 57.7319 13.8862 57.8855 13.9891 58.0399C11.8195 62.1832 8.31993 69.1982 5.35865 76.6567C4.89909 77.8146 5.46524 79.1257 6.62259 79.585C6.89568 79.6933 7.17721 79.7448 7.45452 79.7448C8.35171 79.7448 9.20024 79.2056 9.55153 78.3211C12.0935 71.9184 15.05 65.8367 17.1695 61.7068C17.4229 61.9405 17.685 62.1717 17.9547 62.4004C17.9637 62.4082 17.9727 62.4161 17.9817 62.4234C17.9868 62.4277 17.9921 62.4322 17.9972 62.4364C18.1879 62.5972 18.3825 62.757 18.5808 62.9151C18.5903 62.9229 18.5996 62.9305 18.6095 62.9381C18.6238 62.9496 18.6387 62.9609 18.6531 62.9722C19.1329 63.3524 19.6357 63.7253 20.1614 64.091C20.2033 64.1202 20.2446 64.1495 20.2871 64.1787C20.2998 64.1874 20.3127 64.1959 20.3254 64.2046C20.5056 64.3281 20.6882 64.451 20.8735 64.5727C20.9233 64.6059 20.9731 64.6391 21.024 64.6723C21.0628 64.6976 21.1027 64.7221 21.1418 64.7474C21.3111 64.8565 21.4821 64.9654 21.6557 65.0731C21.7018 65.1021 21.7465 65.1305 21.7938 65.1594C21.888 65.2171 21.9853 65.2759 22.0857 65.3358C22.2187 65.4156 22.3518 65.4955 22.4868 65.5746C22.5231 65.5962 22.5585 65.6176 22.5959 65.6392C22.6991 65.6992 22.806 65.7591 22.9126 65.819C23.0571 65.9011 23.2009 65.9838 23.348 66.0653C23.3758 66.0811 23.4028 66.0963 23.4318 66.1123C23.6011 66.2054 23.7771 66.2988 23.969 66.4003C24.064 66.4509 24.1571 66.5016 24.2536 66.5519C24.2705 66.5606 24.2865 66.5696 24.3034 66.5783C24.5734 66.7187 24.8496 66.8587 25.1302 66.9974C25.1474 67.0058 25.164 67.0148 25.1811 67.0233C25.1828 67.0241 25.1851 67.0255 25.1871 67.0264C25.4407 67.16 25.7169 67.3003 26.0263 67.453C33.5886 71.2063 44.6965 73.8484 57.3289 75.008C57.3294 75.008 57.3303 75.008 57.3308 75.0082C60.3852 75.3368 63.4289 75.5634 66.3778 75.6821C72.6972 75.9372 79.0962 75.7477 85.3976 75.1191C85.6482 75.0982 85.8906 75.0752 86.1376 75.0535C86.6737 75.006 87.2089 74.9571 87.741 74.9042C88.2439 74.8547 88.7428 74.8032 89.2356 74.7492C89.4468 74.7262 89.6577 74.7025 89.8684 74.6786C90.5768 74.5976 91.2808 74.5141 91.9786 74.4232C92.2011 74.3943 92.4111 74.3327 92.6063 74.2458C92.6142 74.2421 92.6227 74.2399 92.6305 74.2362C92.6727 74.2171 92.7124 74.1943 92.7526 74.1727C92.7771 74.1594 92.8024 74.1482 92.8263 74.1341C92.8724 74.1074 92.9157 74.0773 92.9596 74.0472C92.9762 74.0357 92.9936 74.0261 93.0094 74.0143C93.0532 73.9825 93.0946 73.9479 93.1359 73.9131C93.15 73.901 93.1655 73.8906 93.1792 73.8782C93.2152 73.8464 93.2487 73.8118 93.2825 73.7778C93.2996 73.7606 93.3182 73.7446 93.3348 73.7269C93.3649 73.6948 93.3921 73.6599 93.4206 73.6262C93.4386 73.6045 93.458 73.5843 93.4751 73.5621C93.5075 73.5199 93.5367 73.4757 93.5662 73.4313C93.5766 73.4152 93.5887 73.4006 93.5986 73.3843C93.6323 73.3309 93.6624 73.2755 93.6914 73.2195C93.6956 73.2113 93.7007 73.2037 93.7049 73.1953C93.7679 73.0693 93.8191 72.9371 93.8579 72.7999C93.859 72.7959 93.8607 72.7926 93.8616 72.7886C93.94 72.5062 93.9645 72.2036 93.9243 71.8945C93.9172 71.8425 93.9066 71.7922 93.8964 71.7418C93.8916 71.7171 93.8886 71.692 93.8829 71.6676C93.8818 71.6625 93.8798 71.658 93.8787 71.6529C93.6295 70.6222 92.6885 69.9016 91.6265 69.9311C91.5502 69.9331 91.4737 69.9393 91.3964 69.9491C91.3882 69.95 91.3804 69.9508 91.3722 69.9522C90.7054 70.0386 90.0332 70.1184 89.3582 70.1958C89.1484 70.22 88.9377 70.2433 88.7259 70.2664C88.2571 70.3178 87.7854 70.3659 87.3135 70.4129C86.7676 70.4666 86.2138 70.5181 85.6519 70.5676C81.2227 70.9566 76.6538 71.1577 71.9992 71.1577C67.3732 71.1577 62.8512 70.9636 58.5186 70.5929C58.277 70.5681 58.0365 70.5468 57.7949 70.5209C57.7831 70.5198 57.7716 70.5184 57.7597 70.5172C45.8108 69.4204 35.3852 66.9611 28.3958 63.5892L28.2741 63.5316C28.1675 63.4795 28.0628 63.4272 27.9576 63.3752C27.7262 63.2593 27.4947 63.1437 27.2708 63.0253C27.2663 63.0228 27.2618 63.0208 27.2573 63.0183C27.2478 63.0132 27.2382 63.0084 27.2281 63.0037C27.2191 62.9989 27.2098 62.9941 27.2008 62.9896C27.1761 62.9775 27.1527 62.9648 27.128 62.953C26.8909 62.8357 26.658 62.7179 26.4296 62.5995C26.2251 62.4935 26.0243 62.3857 25.8255 62.2777C25.7917 62.2597 25.7574 62.2417 25.7245 62.2237C18.6415 58.3473 15.0961 53.3458 16.1887 48.6512C16.8621 45.7585 19.1646 43.9681 20.9123 43.9681C22.1197 43.9681 23.3018 44.1821 24.4263 44.6048C25.047 44.8383 25.7397 44.7862 26.3191 44.4628C26.8985 44.1391 27.306 43.5772 27.4334 42.9261C28.3469 38.2525 32.4717 34.8604 37.2411 34.8604C38.4258 34.8604 39.5842 35.0651 40.6839 35.4687C41.3274 35.7047 42.0429 35.6358 42.6285 35.2811C43.2146 34.9265 43.6078 34.3249 43.6972 33.6456C44.3481 28.6985 48.607 24.968 53.6034 24.968C55.7941 24.968 57.8742 25.6641 59.6188 26.9811C60.1568 27.387 60.8479 27.5313 61.5043 27.3743C62.1599 27.2171 62.7109 26.7744 63.0059 26.1681C64.6956 22.6957 68.1421 20.5388 71.9997 20.5388C75.8573 20.5388 79.3038 22.696 80.9932 26.1681C81.2883 26.7744 81.8392 27.2168 82.4948 27.3743C83.151 27.5313 83.8426 27.3876 84.3806 26.9809C86.1249 25.6641 88.2051 24.9677 90.3957 24.9677C95.3924 24.9677 99.6508 28.6985 100.302 33.6454C100.391 34.3243 100.785 34.9262 101.37 35.2808C101.956 35.6355 102.672 35.7041 103.315 35.4684C104.415 35.0648 105.574 34.8601 106.758 34.8601C111.527 34.8601 115.653 38.2522 116.566 42.9258C116.693 43.5769 117.1 44.1391 117.68 44.4625C118.259 44.7862 118.952 44.838 119.573 44.6046C120.697 44.1821 121.879 43.9678 123.087 43.9678C124.834 43.9678 127.137 45.7582 127.81 48.6512C128.977 53.6614 124.86 59.0214 116.798 62.9902C116.779 62.9994 116.761 63.009 116.742 63.0188C115.401 63.7265 113.893 64.4009 112.244 65.0379C112.168 65.0675 112.093 65.0976 112.017 65.1265C108.234 66.5682 103.709 67.8111 98.6577 68.785C97.4346 69.0207 96.6341 70.2037 96.8701 71.4268C97.0928 72.5833 98.1641 73.3593 99.3125 73.2423C99.3918 73.2358 99.4716 73.2251 99.5515 73.2099C105.134 72.1392 110.114 70.7422 114.355 69.0567C115.344 68.7049 116.248 68.357 117.118 67.9936C119.69 66.9184 122.183 65.2548 123.837 64.0943C123.841 64.0924 123.864 64.0761 123.868 64.0738C123.873 64.0701 123.898 64.0524 123.904 64.0485L123.952 64.015C123.983 63.9934 124.028 63.961 124.083 63.9208C124.455 63.6573 124.814 63.3898 125.162 63.1187C125.198 63.09 125.236 63.0613 125.272 63.0329C125.725 62.6858 126.299 62.2361 126.861 61.7676C130.773 69.3889 137.303 83.1904 139.097 93.5575C139.108 93.6197 139.121 93.6821 139.137 93.7431C139.37 94.6347 139.488 95.5311 139.488 96.417C139.486 96.4634 139.484 96.5095 139.483 96.5559C139.483 96.5866 139.483 96.6172 139.484 96.6476C139.485 96.7101 139.484 96.7649 139.48 96.8102C139.477 96.8434 139.474 96.8766 139.473 96.9097C139.146 103.59 132.039 110.274 119.974 115.248C107.126 120.546 90.09 123.463 72.0039 123.463C53.9724 123.463 36.9728 120.561 24.1357 115.291C12.0786 110.342 4.93537 103.682 4.53824 97.0208C4.53487 96.9654 4.52953 96.9106 4.52221 96.8555C4.50928 96.759 4.50618 96.6676 4.51321 96.5759C4.51743 96.5197 4.5194 96.4634 4.5194 96.4069C4.5194 95.5589 4.62909 94.6932 4.84565 93.8346C4.85971 93.7777 4.87209 93.7204 4.88193 93.6621C5.30381 91.1855 6.03871 88.3249 7.06696 85.1597C7.45171 83.9751 6.80315 82.7027 5.61881 82.3179C4.43362 81.9329 3.16181 82.5815 2.77706 83.7661C1.69312 87.1031 0.9104 90.1485 0.449994 92.8198C0.163682 93.9842 0.0154629 95.164 0.00899412 96.3287C-0.0112559 96.6721 -0.000568376 97.0197 0.0402129 97.3654C0.594557 105.919 8.53931 113.765 22.4226 119.464C35.7905 124.951 53.3987 127.973 72.0039 127.973C90.666 127.973 108.313 124.935 121.693 119.418C135.619 113.677 143.529 105.779 143.976 97.1741C143.991 96.9888 143.997 96.7956 143.994 96.5981C143.997 96.534 143.999 96.4704 143.999 96.406C143.999 95.1781 143.84 93.9305 143.526 92.6972Z" fill="#F1A874"/>
</g>
<defs>
<clipPath id="clip0_7737_4166">
<rect width="144" height="144" fill="white"/>
</clipPath>
</defs>
</svg>
