<svg width="144" height="134" viewBox="0 0 144 134" fill="none" xmlns="http://www.w3.org/2000/svg">
<g clip-path="url(#clip0_7737_3962)">
<path d="M71.1178 87.7175C62.6122 87.7175 55.6926 93.6258 55.6926 100.888C55.6926 104.337 57.9084 106.396 61.6197 106.396C63.324 106.396 65.1944 105.998 67.0031 105.614C68.4999 105.296 70.0476 104.967 71.1178 104.967C72.0497 104.967 73.5202 105.281 74.9419 105.586C76.8042 105.984 78.7301 106.396 80.5066 106.396C84.2866 106.395 86.5436 104.337 86.5436 100.888C86.5434 93.6258 79.6237 87.7175 71.1178 87.7175ZM81.466 101.734C81.464 101.736 81.2551 101.873 80.506 101.873C79.2968 101.873 77.652 101.521 76.0615 101.181C74.2902 100.802 72.6167 100.444 71.1178 100.444C69.484 100.444 67.6571 100.832 65.8905 101.208C64.3519 101.535 62.7604 101.873 61.6197 101.873C60.9866 101.873 60.778 101.759 60.7749 101.769C60.7638 101.754 60.6232 101.541 60.6232 100.887C60.6232 96.1184 65.331 92.2391 71.1178 92.2391C76.9049 92.2391 81.6127 96.1184 81.6127 100.887C81.6127 101.443 81.5005 101.694 81.466 101.734Z" fill="#F99F9F"/>
<path d="M63.4421 83.3989C63.4421 79.4184 60.4318 76.1802 56.7315 76.1802C53.031 76.1802 50.0204 79.4184 50.0204 83.3989C50.0204 87.3793 53.031 90.6176 56.7315 90.6176C60.4318 90.6173 63.4421 87.3791 63.4421 83.3989ZM54.9513 83.3989C54.9513 81.8557 55.8913 80.7025 56.7318 80.7025C57.572 80.7025 58.5118 81.8557 58.5118 83.3989C58.5118 84.9421 57.572 86.0953 56.7318 86.0953C55.891 86.095 54.9513 84.9418 54.9513 83.3989Z" fill="#F99F9F"/>
<path d="M71.5648 86.1532C75.2651 86.1532 78.2756 82.915 78.2756 78.9345C78.2756 74.9541 75.2651 71.7158 71.5648 71.7158C67.8645 71.7158 64.8542 74.9541 64.8542 78.9345C64.8542 82.915 67.8645 86.1532 71.5648 86.1532ZM71.5648 76.2384C72.4053 76.2384 73.345 77.3916 73.345 78.9348C73.345 80.478 72.4053 81.6312 71.5648 81.6312C70.7246 81.6312 69.7849 80.478 69.7849 78.9348C69.7849 77.3916 70.7246 76.2384 71.5648 76.2384Z" fill="#F99F9F"/>
<path d="M86.3983 76.1802C82.6978 76.1802 79.6872 79.4184 79.6872 83.3989C79.6872 87.3793 82.6978 90.6176 86.3983 90.6176C90.0989 90.6176 93.1095 87.3793 93.1095 83.3989C93.1095 79.4184 90.0989 76.1802 86.3983 76.1802ZM86.3983 86.095C85.5581 86.095 84.6178 84.9418 84.6178 83.3986C84.6178 81.8554 85.5578 80.7022 86.3983 80.7022C87.2386 80.7022 88.1789 81.8554 88.1789 83.3986C88.1789 84.9418 87.2386 86.095 86.3983 86.095Z" fill="#F99F9F"/>
<path d="M140.308 45.9359L76.8008 2.37622C75.4518 1.45127 73.8447 0.962058 72.1533 0.962058L72.1211 0.962324C72.1057 0.962058 72.0915 0.961792 72.0799 0.961792L72.0297 0.96259C72.0111 0.962058 71.9932 0.962324 71.9749 0.962324L71.9198 0.961792C71.9082 0.961792 71.894 0.962058 71.8789 0.962324L71.8467 0.962058C70.1552 0.962058 68.5481 1.45127 67.1992 2.37622L3.69183 45.9362C0.261292 48.2891 -0.443204 52.7638 2.12187 55.9114L7.44286 62.4374C8.90261 64.2277 11.2301 65.296 13.6693 65.296C14.9081 65.296 16.103 65.0292 17.1872 64.5211V125.912C17.1872 129.841 20.6731 133.038 24.9575 133.038H119.043C123.327 133.038 126.813 129.841 126.813 125.912V64.5208C127.897 65.0292 129.092 65.2963 130.331 65.2963H130.331C132.77 65.2963 135.098 64.2271 136.557 62.4374L141.878 55.9108C144.443 52.7638 143.739 48.2891 140.308 45.9359ZM119.043 128.516H24.9575C23.3916 128.516 22.1178 127.348 22.1178 125.912V61.2706L72.0004 27.057L121.882 61.2703V125.912C121.882 127.348 120.608 128.516 119.043 128.516ZM137.93 53.2028L132.608 59.729C132.067 60.393 131.237 60.7739 130.331 60.7739C129.716 60.7739 129.129 60.5944 128.634 60.2547L73.4767 22.4224C73.039 22.1223 72.5196 21.9723 72.0004 21.9723C71.4812 21.9723 70.9618 22.1223 70.5241 22.4224L15.3658 60.2549C14.8707 60.5944 14.2839 60.7737 13.6693 60.7737C12.7633 60.7737 11.9329 60.3927 11.3914 59.7288L6.0707 53.2033C5.13331 52.053 5.39057 50.4175 6.64439 49.5578L70.152 5.99834C70.6419 5.6621 71.2278 5.48466 71.8731 5.48466C71.8731 5.48466 71.8734 5.48466 71.874 5.48466C71.8928 5.48466 71.9114 5.48493 71.9302 5.48439L71.9804 5.48493C71.9946 5.48519 72.0094 5.48519 72.0201 5.48493L72.0761 5.48439C72.104 5.48439 72.1321 5.48466 72.1533 5.48439C72.7719 5.48439 73.3581 5.6621 73.8479 5.99834L137.356 49.5575C138.609 50.4175 138.866 52.053 137.93 53.2028Z" fill="#F99F9F"/>
<path d="M90.2529 56.3857C83.2619 56.3857 76.7593 58.9486 72.0001 63.5007C67.2409 58.9486 60.7377 56.3857 53.7473 56.3857C39.7737 56.3857 28.4052 66.8127 28.4052 79.6295C28.4052 85.607 30.7205 91.628 35.2868 97.5265C38.8403 102.116 43.7678 106.649 49.9322 110.998C60.3238 118.33 70.5583 122.586 70.989 122.764C71.3101 122.896 71.655 122.963 72.0001 122.963C72.3038 122.963 72.6083 122.911 72.8969 122.808C73.329 122.653 83.6047 118.934 94.0309 111.861C100.217 107.664 105.162 103.152 108.727 98.4501C113.284 92.4402 115.595 86.1081 115.595 79.6295C115.595 66.8127 104.227 56.3857 90.2529 56.3857ZM72.0636 118.227C66.0312 115.54 33.3358 100.028 33.3358 79.6295C33.3358 69.3063 42.4922 60.9081 53.7473 60.9081C60.1986 60.9081 66.1347 63.6186 70.0342 68.3449C70.5 68.9097 71.2277 69.2417 72.0001 69.2417C72.7725 69.2417 73.4999 68.9097 73.966 68.3449C77.8652 63.6186 83.8016 60.9081 90.2529 60.9081C101.508 60.9081 110.664 69.3063 110.664 79.6295C110.664 101.939 78.1233 115.835 72.0636 118.227Z" fill="#F99F9F"/>
</g>
<defs>
<clipPath id="clip0_7737_3962">
<rect width="144" height="132.076" fill="white" transform="translate(0 0.961792)"/>
</clipPath>
</defs>
</svg>
